<?xml version="1.0" encoding="UTF-8" standalone="no"?>
<svg
   xmlns:dc="http://purl.org/dc/elements/1.1/"
   xmlns:cc="http://creativecommons.org/ns#"
   xmlns:rdf="http://www.w3.org/1999/02/22-rdf-syntax-ns#"
   xmlns:svg="http://www.w3.org/2000/svg"
   xmlns="http://www.w3.org/2000/svg"
   xmlns:sodipodi="http://sodipodi.sourceforge.net/DTD/sodipodi-0.dtd"
   xmlns:inkscape="http://www.inkscape.org/namespaces/inkscape"
   version="1.0"
   width="1135.8229pt"
   height="2017.3328pt"
   viewBox="0 0 1135.8229 2017.3328"
   preserveAspectRatio="xMidYMid meet"
   id="svg863"
   sodipodi:docname="golden_picker.svg"
   inkscape:version="0.92.3 (2405546, 2018-03-11)">
  <defs
     id="defs867" />
  <sodipodi:namedview
     pagecolor="#ffffff"
     bordercolor="#666666"
     borderopacity="1"
     objecttolerance="10"
     gridtolerance="10"
     guidetolerance="10"
     inkscape:pageopacity="0"
     inkscape:pageshadow="2"
     inkscape:window-width="1920"
     inkscape:window-height="1017"
     id="namedview865"
     showgrid="false"
     inkscape:zoom="0.22750643"
     inkscape:cx="8.2010508"
     inkscape:cy="770.77722"
     inkscape:window-x="-8"
     inkscape:window-y="-8"
     inkscape:window-maximized="1"
     inkscape:current-layer="svg863" />
  <metadata
     id="metadata847">
Created by potrace 1.12, written by Peter Selinger 2001-2015
<rdf:RDF>
  <cc:Work
     rdf:about="">
    <dc:format>image/svg+xml</dc:format>
    <dc:type
       rdf:resource="http://purl.org/dc/dcmitype/StillImage" />
    <dc:title></dc:title>
  </cc:Work>
</rdf:RDF>
</metadata>
  <g
     transform="matrix(0.1,0,0,-0.1,353.61598,2076.3007)"
     id="g861"
     style="fill:#ffcc00;stroke:none;fill-opacity:1">
    <path
       d="m 2530,15340 c -687.6428,-221.131 -149.6996,-2052.04 -197.6855,-1561.787 33.7411,-879.302 108.5859,-1757.785 20.6855,-2636.588 2.8885,-528.698 418.41,-1597.296 -448.625,-1491.125 C 1524.3301,9566.5829 953.61384,9375.0011 1090.0697,8877.1603 896.72059,8563.2873 278.48615,8443.3393 423.74219,7915.6367 200.80632,7513.9983 -100.01244,7020.5625 259.25,6518.375 346.56199,5932.6384 333.8757,5331.857 556.79688,4772.4844 748.7698,4200.1461 1013.0201,3654.6909 920.02539,2996.0957 1067.8197,2148.4254 984.21951,1137.997 1075.2076,589.68007 1056.8412,1144.2074 1098.366,1493.3991 1172,2135 1149.903,2429.1445 1047.812,3264.4525 1412.3594,2647.4062 1606.8242,2419.7698 2387.17,2517.3471 1750,2670 1160.93,2937.5923 1238.7836,3688.7719 999.125,4195.5 718.37899,4853.5397 510.63355,5545.2252 504.625,6267.125 343.48783,6788.1406 78.712091,7450.5567 761.01562,7691.7812 c 304.80738,84.5881 250.65308,514.8412 -46.64062,182.8438 -105.54833,458.5391 211.05401,828.1422 505.25,763.125 -7.5316,401.7915 1067.852,1242.3336 366.625,732.875 489.622,201.7337 1041.5984,153.6845 1531.5,363.75 379.4833,82.4842 797.0604,160.2214 1175.25,90.625 106.1474,103.3067 -224.6243,-345.1898 -328,-481 108.3987,382.9338 704.1655,464.551 695,-89 370.4006,-716.7672 775.483,-1453.3992 838.5,-2271.875 C 5600.5904,6512.5626 5010.3425,5821.4093 4965,6654 4754.3458,7205.3761 4649.2287,7823.4788 4291.6094,8301.7969 3876.6414,8449.0096 3418.9047,8649.68 3565,9194 c -180.3634,276.561 -226.6378,-544.919 -222,-607 -464.7681,73.6462 -1817.5144,454.6631 -1370,313 -460.4366,70.0649 434.0046,-115.5379 61.9688,-206.125 C 2684.6602,8459.7078 3390.3,8454.7651 4040,8225 c -205.313,-124.2092 -441.6954,-780.0161 -590,-632 149.5857,466.5064 923.8435,811.6329 936,70 252.3511,-622.2129 436.6299,-1266.2863 633.0781,-1905.6875 C 5352.1854,5128.8509 4290.6607,4848.1909 4361,5563 4182.7131,6114.4954 3239.5985,7576.834 3577.8828,7123.6602 2940.1489,7552.978 2147.4508,7668.8344 1400.5,7750 1547.8005,7388.9912 2967.9483,7196.6823 2605,7350 3132.5453,7259.7054 3599.058,6946.0123 3735.1035,6413.0059 4125.6978,6020.106 4382.989,4985.7997 3519.625,5116 2959.588,5262.9111 2901.9351,6000.0485 2357.6875,6150.2969 1876.9166,6429.1577 1261.2216,6496.8534 926,6970 570.1623,6654.1505 1955.5975,6271.1057 1296.375,6283.25 718.77733,6712.7821 1047.4576,6228.5425 1487.0387,6138.6538 1642.9104,6107.0695 1658.6211,6060.8819 1540,6019 1278.7481,5943.2268 377.64951,6217.622 1035.875,5938.25 1476.3817,5681.9308 2064.9096,6341.2253 2321,5874 c -132.3468,-415.533 -840.6243,-678.0926 -858,-709 224.9835,-84.2573 994.9212,481.615 1066.375,643.125 C 2980.3923,4865.4219 2993.6226,5171.0669 2727,4528 c 216.3579,272.2224 302.2189,823.2447 626,428 269.8543,-235.8805 422.0607,-909.4307 314.75,-1049.375 C 3982.2208,4151.6431 3292.1213,5005.079 4005,4974 4358.0614,5306.2535 4950.2442,4549.1778 5226.9655,5218.931 5176.4467,5854.5359 5376.841,6109.8158 5481,6180 5382.032,5661.5459 4757.6015,4140.9984 5063.293,4604.4336 4714.2406,4123.0442 4512.267,3562.4932 4200,3058 4119.4585,2618.1185 4378.5462,1815.7083 4487.7476,1221.2827 4423.9309,1816.2016 4324.7527,2371.1485 4410,2944 4688.6542,3450.2813 4899.0689,3999.5726 5247.3281,4471.8438 5741.5058,5056.5809 5471.5383,5928.4237 5960,6515 c 273.0057,394.1825 425.2624,839.1172 588,1285 391.8972,482.5322 433.563,1198.8774 -298.1777,1329.2363 -412.3757,215.1647 -1105.0682,979.5987 -1341.6973,170.1387 -68.8141,488.1253 -1001.3435,1171.213 -802.9375,911.203 -89.1686,631.641 -376.1007,1238.405 -260.2344,1887.766 72.0366,614.523 -247.6117,1181.064 -142.9531,1796.656 -89.8441,609.42 -462.9525,1254.673 -1075.5,1448 z m 72,-133 c 640.2581,-282.215 941.3685,-1065.897 851.75,-1729.375 -331.6036,-104.519 -504.6779,-328.295 -29.75,-210.625 167.483,-407.912 176.4371,-1238.86 63.4844,-1395.062 -200.0711,-151.521 -221.6686,-156.236 -20.9727,-183.093 287.8332,-283.052 235.7837,-584.447 295.4883,-923.845 102.807,-373.851 247.2497,-894.1798 -347.8906,-775.375 -274.6334,18.252 -879.6732,-441.1391 -764.9694,78.071 29.1863,453.898 -90.0305,1792.453 -79.14,1347.304 118.0829,792.942 -29.878,1593.847 -39,2390 -50.2781,388.219 -445.8504,1260.675 71,1402 z M 5368,9456 c 144.8262,-525.9318 494.3244,-661.9734 644.1875,-447.5312 471.0104,6.7231 -202.4813,-866.7535 330.8594,-798.1876 -549.4612,-191.1346 -1087.558,161.9239 -1239.8745,694.374 C 5062.0256,9051.5891 5116.7968,9610.6423 5368,9456 Z m 267,-197 c 390.5706,-202.233 -1.1123,308.5866 -50.25,39.875 z M 6377,8017 C 6151.1735,7515.0139 6036.2633,6960.4007 5688,6520 5886.5975,6986.532 5571.504,8364.5439 5555.5757,7992.0417 5712.9924,7760.9969 6246.8886,7792.8169 5785,7984 c -541.0017,24.3101 926.8333,184.9521 592,33 z"
       id="path849"
       inkscape:connector-curvature="0"
       sodipodi:nodetypes="ccccccccccccccccccccccccccccccccccccccccccccccccccccccccccccccccccccccccccccccccccccccccccccc"
       style="fill:#ffcc00;fill-opacity:1;stroke:none" />
    <path
       d="m 4296,9577 c -66,-35 -126,-99 -126,-133 0,-52 37,-68 97,-42 32,14 128,82 138,98 10,17 -34,100 -53,99 -10,0 -35,-10 -56,-22 z"
       id="path851"
       inkscape:connector-curvature="0"
       style="fill:#ffcc00;fill-opacity:1;stroke:none" />
    <path
       d="m 4016,8044 c -52,-19 -180,-111 -241,-173 l -49,-51 20,-27 c 18,-24 29,-28 78,-31 38,-2 75,4 115,17 70,26 71,26 71,2 0,-20 -60,-78 -133,-128 -48,-33 -57,-50 -33,-59 22,-8 169,73 218,121 61,59 69,83 34,108 l -27,19 22,24 c 21,23 21,24 4,71 -17,49 -19,63 -13,98 4,24 -15,27 -66,9 z"
       id="path853"
       inkscape:connector-curvature="0"
       style="fill:#ffcc00;fill-opacity:1;stroke:none" />
    <path
       d="m 3314,6828 c -22,-24 -67,-74 -99,-113 -143,-170 -236,-239 -327,-240 -26,-1 -51,-4 -54,-8 -8,-7 22,-73 37,-83 33,-20 266,116 356,208 69,71 203,229 203,240 0,5 -8,11 -17,14 -10,3 -26,10 -35,15 -23,12 -19,15 -64,-33 z"
       id="path855"
       inkscape:connector-curvature="0"
       style="fill:#ffcc00;fill-opacity:1;stroke:none" />
    <path
       d="m 3356,6658 c -9,-12 -16,-26 -16,-31 0,-14 -76,-120 -106,-149 -16,-14 -49,-33 -74,-41 -52,-17 -59,-34 -31,-68 17,-20 22,-22 38,-11 10,6 28,17 41,22 67,29 170,118 196,171 23,46 21,106 -3,119 -26,14 -28,13 -45,-12 z"
       id="path857"
       inkscape:connector-curvature="0"
       style="fill:#ffcc00;fill-opacity:1;stroke:none" />
    <path
       d="m 3597,3521 c -14,-17 -40,-68 -57,-113 -62,-161 -123,-258 -242,-383 -149,-158 -289,-253 -474,-325 -43,-16 -89,-30 -101,-30 -12,0 -24,-4 -27,-9 -3,-4 -29,-12 -58,-15 -52,-7 -64,-7 -123,-3 -24,2 -31,-2 -33,-19 -2,-17 9,-29 50,-55 51,-32 57,-33 148,-32 68,0 104,5 125,17 17,9 35,16 41,16 7,0 25,7 40,15 18,9 30,11 32,5 6,-17 -95,-126 -132,-144 -29,-14 -46,-33 -46,-53 0,-13 121,6 165,26 95,42 197,150 260,275 22,43 45,69 85,99 166,121 286,294 389,562 24,61 48,120 54,133 15,32 -1,56 -40,60 -24,2 -36,-4 -56,-27 z"
       id="path859"
       inkscape:connector-curvature="0"
       style="fill:#ffcc00;fill-opacity:1;stroke:none" />
  </g>
  <path
     style="fill:#ffcc00;fill-opacity:1;stroke:none;stroke-width:0.75px;stroke-linecap:butt;stroke-linejoin:miter;stroke-opacity:1"
     d="M 1135.3852,96.590351 C 993.67234,259.96655 993.67234,259.96655 993.67234,259.96655 l -141.4856,32.1315 -98.7042,168.0877 -110.35989,61.1255 89.60949,-80.4549 82.4174,-206.8269 148.1408,-73.8535 L 1094.0247,0.71395088 Z"
     id="path1412"
     inkscape:connector-curvature="0" />
  <path
     style="fill:#ffcc00;fill-opacity:1;stroke:none;stroke-width:0.75px;stroke-linecap:butt;stroke-linejoin:miter;stroke-opacity:1"
     d="m 691.03634,533.72495 93.2422,-45.4556 89.7456,-17.4829 47.7867,-75.7593 62.9385,10.4898 -93.2423,110.7251 -97.9043,-6.9931 z"
     id="path1428"
     inkscape:connector-curvature="0" />
  <path
     style="fill:#ffcc00;fill-opacity:1;stroke:none;stroke-width:0.75px;stroke-linecap:butt;stroke-linejoin:miter;stroke-opacity:1"
     d="m 572.15242,523.81785 -25.6416,-129.3736 -130.53911,-71.0972 -3.49659,-158.5117 -191.14653,-97.904399 -139.863326,39.627999 268.071366,100.2354 32.63477,137.5322 142.1944,64.104 z"
     id="path1430"
     inkscape:connector-curvature="0" />
  <path
     style="fill:#ffcc00;fill-opacity:1;stroke:none;stroke-width:0.75px;stroke-linecap:butt;stroke-linejoin:miter;stroke-opacity:1"
     d="m 604.20442,502.25565 7.72162,-103.0036 -41.52195,-50.8461 -3.49657,-90.9111 -27.9726,-73.4283 51.2832,-44.29 11.65522,123.5459 -10.48972,75.7593 29.13817,61.773 z"
     id="path1432"
     inkscape:connector-curvature="0"
     sodipodi:nodetypes="cccccccccc" />
  <path
     style="fill:#ffcc00;fill-opacity:1;stroke:none;stroke-width:0.75px;stroke-linecap:butt;stroke-linejoin:miter;stroke-opacity:1"
     d="m 624.60115,491.76585 37.2969,-111.8906 51.28319,-23.3106 6.9932,-74.5937 39.6279,-10.4898 -25.6416,111.8907 -50.1177,16.3174 z"
     id="path1436"
     inkscape:connector-curvature="0" />
  <path
     style="fill:#ffcc00;fill-opacity:1;stroke:none;stroke-width:0.75px;stroke-linecap:butt;stroke-linejoin:miter;stroke-opacity:1"
     d="M 549.42464,543.63185 431.70633,504.00395 386.25075,404.93405 158.97286,303.53315 45.333914,163.08705 0.46109369,268.56735 115.84833,353.65085 l 243.59529,93.2423 59.44191,75.7593 z"
     id="path1438"
     inkscape:connector-curvature="0"
     sodipodi:nodetypes="cccccccccc" />
  <path
     style="fill:#ffcc00;fill-opacity:1;stroke:none;stroke-width:0.75px;stroke-linecap:butt;stroke-linejoin:miter;stroke-opacity:1"
     d="m 538.93492,579.76325 -57.11093,79.2559 -12.8208,89.7456 -117.71827,110.7251 103.73197,3.4966 53.61428,-81.5869 -5.82765,-100.2354 z"
     id="path1440"
     inkscape:connector-curvature="0" />
  <path
     style="fill:#ffcc00;fill-opacity:1;stroke:none;stroke-width:0.75px;stroke-linecap:butt;stroke-linejoin:miter;stroke-opacity:1"
     d="m 505.13459,556.45265 -100.23539,-2.331 -135.20121,19.814 -98.48709,-42.5418 2.91382,53.0315 97.90432,11.6553 137.53227,-29.1382 z"
     id="path1442"
     inkscape:connector-curvature="0"
     sodipodi:nodetypes="cccccccc" />
  <path
     style="fill:#ffcc00;fill-opacity:1;stroke:none;stroke-width:0.75px;stroke-linecap:butt;stroke-linejoin:miter;stroke-opacity:1"
     d="m 513.2925,565.77628 -94.40768,43.125 h -60.60644 l -73.42823,46.62158 -73.42822,54.19627 -41.95898,58.27732 -161.9011625,114.5418 82.0627855,20.6589 69.931637,-66.43507 76.9248,-22.14548 85.66553,4.07955 81.5874,-54.77925 23.31006,-59.44192 17.48287,-46.62157 36.13185,-33.7998 -53.61472,33.7998 -25.6421,55.94535 -65.26904,54.78074 -28.55566,6.41018 -35.54882,-6.99323 7.57617,-51.28417 44.67258,-55.17045 63.13845,-28.16452 38.4624,3.49665 z"
     id="path1444"
     inkscape:connector-curvature="0"
     sodipodi:nodetypes="ccccccccccccccccccccccccc" />
  <path
     style="fill:#ffcc00;fill-opacity:1;stroke:none;stroke-width:0.75px;stroke-linecap:butt;stroke-linejoin:miter;stroke-opacity:1"
     d="m 689.87074,558.78375 58.2764,4.662 50.1177,18.6485 37.2969,2.3311 -6.9932,20.9795 -40.7935,-5.8277 -50.1177,-25.6416 z"
     id="path1448"
     inkscape:connector-curvature="0" />
</svg>
